<svg id="Слой_1" data-name="Слой 1" xmlns="http://www.w3.org/2000/svg" viewBox="0 0 50 50"><defs><style>.cls-1{fill:#fff;}</style></defs><polygon class="cls-1" points="15.16 31.49 25.11 14.25 35.07 31.49 15.16 31.49"/><path d="M25.11,15.25l4.55,7.87L34.2,31H16l4.55-7.87,4.54-7.87m0-2L19.7,22.62,14.29,32H35.93l-5.41-9.37-5.41-9.37Z"/><path class="cls-1" d="M25.11,40a1.84,1.84,0,0,1-1.83-1.82v-6h3.66v6A1.83,1.83,0,0,1,25.11,40Z"/><path d="M26.44,32.68v5.46a1.33,1.33,0,1,1-2.66,0V32.68h2.66m1-1H22.78v6.46a2.33,2.33,0,0,0,4.66,0V31.68Z"/><polygon class="cls-1" points="18.54 21.82 25.15 10.37 31.77 21.82 18.54 21.82"/><path d="M25.15,11.37l2.88,5,2.87,5H19.41l2.87-5,2.87-5m0-2-3.74,6.48-3.73,6.48h15l-3.74-6.48L25.15,9.37Z"/><polygon class="cls-1" points="21.1 14.97 25.14 8 29.18 14.97 21.1 14.97"/><path d="M25.14,9l1.59,2.75,1.58,2.73H22l1.58-2.73L25.14,9m0-2-2.45,4.23-2.45,4.24h9.81l-2.46-4.24L25.14,7Z"/></svg>